<mxfile host="Electron" modified="2023-07-20T11:01:07.506Z" agent="Mozilla/5.0 (Windows NT 10.0; Win64; x64) AppleWebKit/537.36 (KHTML, like Gecko) draw.io/21.6.1 Chrome/112.0.5615.204 Electron/24.6.1 Safari/537.36" etag="aLPCRawwA_KfO61z53c_" version="21.6.1" type="device">
  <diagram id="QgaZN2SDxjbuTsAsAwZ_" name="Page-1">
    <mxGraphModel dx="780" dy="513" grid="1" gridSize="10" guides="1" tooltips="1" connect="1" arrows="1" fold="1" page="1" pageScale="1" pageWidth="1600" pageHeight="900" math="0" shadow="0">
      <root>
        <mxCell id="0" />
        <mxCell id="1" parent="0" />
        <mxCell id="ag5qO2Fj8C9gM_hjXEJh-1" style="edgeStyle=orthogonalEdgeStyle;rounded=0;orthogonalLoop=1;jettySize=auto;html=1;" edge="1" parent="1" source="ag5qO2Fj8C9gM_hjXEJh-2">
          <mxGeometry relative="1" as="geometry">
            <mxPoint x="182" y="475.5" as="targetPoint" />
          </mxGeometry>
        </mxCell>
        <mxCell id="ag5qO2Fj8C9gM_hjXEJh-2" value="" style="sketch=0;pointerEvents=1;shadow=0;dashed=0;html=1;strokeColor=none;fillColor=#505050;labelPosition=center;verticalLabelPosition=bottom;verticalAlign=top;outlineConnect=0;align=center;shape=mxgraph.office.concepts.application_web;" vertex="1" parent="1">
          <mxGeometry x="32" y="451" width="56" height="49" as="geometry" />
        </mxCell>
        <mxCell id="ag5qO2Fj8C9gM_hjXEJh-3" style="edgeStyle=orthogonalEdgeStyle;rounded=0;orthogonalLoop=1;jettySize=auto;html=1;entryX=0;entryY=0.5;entryDx=0;entryDy=0;" edge="1" parent="1" source="ag5qO2Fj8C9gM_hjXEJh-4" target="ag5qO2Fj8C9gM_hjXEJh-11">
          <mxGeometry relative="1" as="geometry" />
        </mxCell>
        <mxCell id="ag5qO2Fj8C9gM_hjXEJh-4" value="tbl_windows_job" style="shape=step;perimeter=stepPerimeter;whiteSpace=wrap;html=1;fixedSize=1;" vertex="1" parent="1">
          <mxGeometry x="170" y="454.5" width="140" height="45.5" as="geometry" />
        </mxCell>
        <mxCell id="ag5qO2Fj8C9gM_hjXEJh-5" style="edgeStyle=orthogonalEdgeStyle;rounded=0;orthogonalLoop=1;jettySize=auto;html=1;entryX=0;entryY=0.5;entryDx=0;entryDy=0;entryPerimeter=0;" edge="1" parent="1" source="ag5qO2Fj8C9gM_hjXEJh-11" target="ag5qO2Fj8C9gM_hjXEJh-12">
          <mxGeometry relative="1" as="geometry" />
        </mxCell>
        <mxCell id="ag5qO2Fj8C9gM_hjXEJh-6" style="edgeStyle=orthogonalEdgeStyle;rounded=0;orthogonalLoop=1;jettySize=auto;html=1;entryX=0;entryY=0;entryDx=0;entryDy=37.5;entryPerimeter=0;" edge="1" parent="1" source="ag5qO2Fj8C9gM_hjXEJh-11" target="ag5qO2Fj8C9gM_hjXEJh-15">
          <mxGeometry relative="1" as="geometry" />
        </mxCell>
        <mxCell id="ag5qO2Fj8C9gM_hjXEJh-7" style="edgeStyle=orthogonalEdgeStyle;rounded=0;orthogonalLoop=1;jettySize=auto;html=1;entryX=0;entryY=0;entryDx=0;entryDy=37.5;entryPerimeter=0;" edge="1" parent="1" source="ag5qO2Fj8C9gM_hjXEJh-11" target="ag5qO2Fj8C9gM_hjXEJh-16">
          <mxGeometry relative="1" as="geometry" />
        </mxCell>
        <mxCell id="ag5qO2Fj8C9gM_hjXEJh-8" style="edgeStyle=orthogonalEdgeStyle;rounded=0;orthogonalLoop=1;jettySize=auto;html=1;exitX=0.5;exitY=1;exitDx=0;exitDy=0;" edge="1" parent="1" source="ag5qO2Fj8C9gM_hjXEJh-11">
          <mxGeometry relative="1" as="geometry">
            <mxPoint x="312" y="561" as="targetPoint" />
          </mxGeometry>
        </mxCell>
        <mxCell id="ag5qO2Fj8C9gM_hjXEJh-9" style="edgeStyle=orthogonalEdgeStyle;rounded=0;orthogonalLoop=1;jettySize=auto;html=1;entryX=0.5;entryY=0;entryDx=0;entryDy=0;" edge="1" parent="1" source="ag5qO2Fj8C9gM_hjXEJh-11" target="ag5qO2Fj8C9gM_hjXEJh-22">
          <mxGeometry relative="1" as="geometry">
            <Array as="points">
              <mxPoint x="407" y="531" />
              <mxPoint x="490" y="531" />
            </Array>
          </mxGeometry>
        </mxCell>
        <mxCell id="ag5qO2Fj8C9gM_hjXEJh-10" style="edgeStyle=orthogonalEdgeStyle;rounded=0;orthogonalLoop=1;jettySize=auto;html=1;entryX=0.5;entryY=0;entryDx=0;entryDy=0;" edge="1" parent="1" source="ag5qO2Fj8C9gM_hjXEJh-11" target="ag5qO2Fj8C9gM_hjXEJh-21">
          <mxGeometry relative="1" as="geometry" />
        </mxCell>
        <mxCell id="ag5qO2Fj8C9gM_hjXEJh-11" value="C#" style="whiteSpace=wrap;html=1;aspect=fixed;" vertex="1" parent="1">
          <mxGeometry x="372" y="441" width="70" height="70" as="geometry" />
        </mxCell>
        <mxCell id="ag5qO2Fj8C9gM_hjXEJh-12" value="" style="shape=cylinder3;whiteSpace=wrap;html=1;boundedLbl=1;backgroundOutline=1;size=15;" vertex="1" parent="1">
          <mxGeometry x="650" y="311" width="50" height="60" as="geometry" />
        </mxCell>
        <mxCell id="ag5qO2Fj8C9gM_hjXEJh-13" style="edgeStyle=orthogonalEdgeStyle;rounded=0;orthogonalLoop=1;jettySize=auto;html=1;dashed=1;fillColor=#d5e8d4;strokeColor=#82b366;" edge="1" parent="1" source="ag5qO2Fj8C9gM_hjXEJh-15" target="ag5qO2Fj8C9gM_hjXEJh-12">
          <mxGeometry relative="1" as="geometry" />
        </mxCell>
        <mxCell id="ag5qO2Fj8C9gM_hjXEJh-14" style="edgeStyle=orthogonalEdgeStyle;rounded=0;orthogonalLoop=1;jettySize=auto;html=1;dashed=1;fillColor=#d5e8d4;strokeColor=#82b366;" edge="1" parent="1" source="ag5qO2Fj8C9gM_hjXEJh-15" target="ag5qO2Fj8C9gM_hjXEJh-16">
          <mxGeometry relative="1" as="geometry" />
        </mxCell>
        <mxCell id="ag5qO2Fj8C9gM_hjXEJh-15" value="" style="shape=cylinder3;whiteSpace=wrap;html=1;boundedLbl=1;backgroundOutline=1;size=15;" vertex="1" parent="1">
          <mxGeometry x="650" y="436" width="50" height="60" as="geometry" />
        </mxCell>
        <mxCell id="ag5qO2Fj8C9gM_hjXEJh-16" value="" style="shape=cylinder3;whiteSpace=wrap;html=1;boundedLbl=1;backgroundOutline=1;size=15;" vertex="1" parent="1">
          <mxGeometry x="650" y="546" width="50" height="60" as="geometry" />
        </mxCell>
        <mxCell id="ag5qO2Fj8C9gM_hjXEJh-17" value="Positions Hourly" style="text;html=1;align=center;verticalAlign=middle;resizable=0;points=[];autosize=1;strokeColor=none;fillColor=none;" vertex="1" parent="1">
          <mxGeometry x="715" y="451" width="110" height="30" as="geometry" />
        </mxCell>
        <mxCell id="ag5qO2Fj8C9gM_hjXEJh-18" value="Positions Monthly" style="text;html=1;align=center;verticalAlign=middle;resizable=0;points=[];autosize=1;strokeColor=none;fillColor=none;" vertex="1" parent="1">
          <mxGeometry x="705" y="331" width="120" height="30" as="geometry" />
        </mxCell>
        <mxCell id="ag5qO2Fj8C9gM_hjXEJh-19" value="Positions by HE" style="text;html=1;align=center;verticalAlign=middle;resizable=0;points=[];autosize=1;strokeColor=none;fillColor=none;" vertex="1" parent="1">
          <mxGeometry x="710" y="571" width="110" height="30" as="geometry" />
        </mxCell>
        <mxCell id="ag5qO2Fj8C9gM_hjXEJh-20" value="InnoWattts" style="rounded=0;whiteSpace=wrap;html=1;" vertex="1" parent="1">
          <mxGeometry x="272" y="561" width="70" height="30" as="geometry" />
        </mxCell>
        <mxCell id="ag5qO2Fj8C9gM_hjXEJh-21" value="Vendor 2" style="rounded=0;whiteSpace=wrap;html=1;" vertex="1" parent="1">
          <mxGeometry x="372" y="561" width="70" height="30" as="geometry" />
        </mxCell>
        <mxCell id="ag5qO2Fj8C9gM_hjXEJh-22" value="Vendor 3" style="rounded=0;whiteSpace=wrap;html=1;" vertex="1" parent="1">
          <mxGeometry x="455" y="561" width="70" height="30" as="geometry" />
        </mxCell>
        <mxCell id="ag5qO2Fj8C9gM_hjXEJh-23" style="edgeStyle=orthogonalEdgeStyle;rounded=0;orthogonalLoop=1;jettySize=auto;html=1;entryX=0.029;entryY=0.6;entryDx=0;entryDy=0;entryPerimeter=0;" edge="1" parent="1" source="ag5qO2Fj8C9gM_hjXEJh-24" target="ag5qO2Fj8C9gM_hjXEJh-27">
          <mxGeometry relative="1" as="geometry">
            <mxPoint x="345" y="295.5" as="targetPoint" />
          </mxGeometry>
        </mxCell>
        <mxCell id="ag5qO2Fj8C9gM_hjXEJh-24" value="" style="sketch=0;pointerEvents=1;shadow=0;dashed=0;html=1;strokeColor=none;fillColor=#505050;labelPosition=center;verticalLabelPosition=bottom;verticalAlign=top;outlineConnect=0;align=center;shape=mxgraph.office.concepts.application_web;" vertex="1" parent="1">
          <mxGeometry x="42" y="271" width="56" height="49" as="geometry" />
        </mxCell>
        <mxCell id="ag5qO2Fj8C9gM_hjXEJh-25" value="MPS Portal" style="text;html=1;align=center;verticalAlign=middle;resizable=0;points=[];autosize=1;strokeColor=none;fillColor=none;" vertex="1" parent="1">
          <mxGeometry x="30" y="331" width="80" height="30" as="geometry" />
        </mxCell>
        <mxCell id="ag5qO2Fj8C9gM_hjXEJh-26" style="edgeStyle=orthogonalEdgeStyle;rounded=0;orthogonalLoop=1;jettySize=auto;html=1;entryX=0.5;entryY=0;entryDx=0;entryDy=0;" edge="1" parent="1" source="ag5qO2Fj8C9gM_hjXEJh-27" target="ag5qO2Fj8C9gM_hjXEJh-11">
          <mxGeometry relative="1" as="geometry" />
        </mxCell>
        <mxCell id="ag5qO2Fj8C9gM_hjXEJh-27" value="" style="image;aspect=fixed;html=1;points=[];align=center;fontSize=12;image=img/lib/azure2/integration/Service_Bus.svg;" vertex="1" parent="1">
          <mxGeometry x="373" y="260" width="68" height="60" as="geometry" />
        </mxCell>
        <mxCell id="ag5qO2Fj8C9gM_hjXEJh-28" value="PositionRequest Queue" style="text;html=1;align=center;verticalAlign=middle;resizable=0;points=[];autosize=1;strokeColor=none;fillColor=none;" vertex="1" parent="1">
          <mxGeometry x="192" y="311" width="150" height="30" as="geometry" />
        </mxCell>
      </root>
    </mxGraphModel>
  </diagram>
</mxfile>
